<svg width="530" height="32" viewBox="0 0 530 32" fill="none" xmlns="http://www.w3.org/2000/svg">
<path d="M16 0.578125V7.24414H18.666V9.91113H16V24.5781H21.333V12.5781H24V24.5781H26.666V27.2441H0V24.5781H2.66602V8.57812H5.33301V24.5781H13.333V3.24414H10.666V0.578125H16Z" fill="#8232FF"/>
<path d="M10.666 19.2441H8V16.5781H10.666V19.2441Z" fill="#8232FF"/>
<path d="M10.666 13.9111H8V11.2441H10.666V13.9111Z" fill="#8232FF"/>
<path d="M21.333 12.5781H18.666V9.91113H21.333V12.5781Z" fill="#8232FF"/>
<path d="M8 8.57812H5.33301V5.91113H8V8.57812Z" fill="#8232FF"/>
<path d="M10.666 5.91113H8V3.24414H10.666V5.91113Z" fill="#8232FF"/>
<path d="M46.4014 25.9111H42.8081V1.854H54.5547C56.8535 1.854 58.6045 2.47705 59.8076 3.72314C61.0107 4.96924 61.6123 6.72021 61.6123 8.97607C61.6123 10.394 61.2954 11.6079 60.6616 12.6177C60.0278 13.6274 59.1685 14.3311 58.0835 14.7285V14.9541H59.3081C60.8872 14.9541 61.6768 15.8135 61.6768 17.5322V25.9111H58.0513V16.8394H46.4014V25.9111ZM46.4014 4.99609V13.8262H53.749C55.0059 13.8262 55.9888 13.52 56.6978 12.9077C57.4175 12.2847 57.7773 11.4468 57.7773 10.394V8.396C57.7773 7.28955 57.4229 6.44629 56.7139 5.86621C56.0156 5.28613 55.0273 4.99609 53.749 4.99609H46.4014Z" fill="#201F24"/>
<path d="M63.145 17.1938C63.145 14.3901 63.8808 12.1934 65.3525 10.6035C66.8242 9.01367 68.8276 8.21875 71.3628 8.21875C73.7583 8.21875 75.6597 8.92236 77.0669 10.3296C78.4956 11.7583 79.2099 13.6865 79.2099 16.1143C79.2099 16.6836 79.167 17.3066 79.081 17.9834H66.6416V18.9502C66.6416 20.3252 67.082 21.437 67.9629 22.2856C68.8437 23.1235 69.9985 23.5425 71.4272 23.5425C72.5552 23.5425 73.5166 23.2793 74.3115 22.7529C75.1172 22.2266 75.6543 21.5176 75.9228 20.626H79.2744C78.9306 22.3232 78.039 23.6821 76.5996 24.7026C75.1709 25.7231 73.436 26.2334 71.395 26.2334C68.8384 26.2334 66.8242 25.4224 65.3525 23.8003C63.8808 22.1782 63.145 19.9761 63.145 17.1938ZM66.6416 15.1475V15.5503H75.7778V14.9863C75.7778 13.7725 75.3696 12.7949 74.5532 12.0537C73.7368 11.3018 72.6626 10.9258 71.3306 10.9258C69.9448 10.9258 68.8169 11.3179 67.9468 12.1021C67.0766 12.8755 66.6416 13.8906 66.6416 15.1475Z" fill="#201F24"/>
<path d="M79.9531 20.9321C79.9531 19.2349 80.5063 17.9136 81.6128 16.9683C82.7299 16.0229 84.2768 15.5503 86.2534 15.5503H91.2968V14.2935C91.2968 12.0483 90.1098 10.9258 87.7358 10.9258C86.5864 10.9258 85.6894 11.189 85.0449 11.7153C84.4111 12.2417 84.0673 12.9722 84.0136 13.9067H80.646C80.7534 12.1128 81.4463 10.7163 82.7246 9.71729C84.0136 8.71826 85.7378 8.21875 87.8969 8.21875C88.9819 8.21875 89.9648 8.36914 90.8457 8.66992C91.7265 8.9707 92.4087 9.36279 92.8921 9.84619C94.0952 10.9956 94.6967 12.4995 94.6967 14.3579V23.4297H97.146V25.9111H94.0039C93.166 25.9111 92.559 25.75 92.1831 25.4277C91.8071 25.1055 91.5922 24.606 91.5385 23.9292L91.5063 23.1074H91.2646C90.8886 24.0527 90.1743 24.8101 89.1215 25.3794C88.0796 25.9487 86.8711 26.2334 85.4961 26.2334C83.788 26.2334 82.4345 25.7554 81.4355 24.7993C80.4472 23.8325 79.9531 22.5435 79.9531 20.9321ZM83.4174 20.207V21.1255C83.4174 21.9097 83.6806 22.5112 84.207 22.9302C84.7441 23.3384 85.4907 23.5425 86.4467 23.5425C87.9399 23.5425 89.1215 23.1074 89.9917 22.2373C90.8618 21.3564 91.2968 20.1855 91.2968 18.7246V17.8867H86.6884C85.6572 17.8867 84.8515 18.0962 84.2714 18.5151C83.7021 18.9233 83.4174 19.4873 83.4174 20.207Z" fill="#201F24"/>
<path d="M109.974 19.8687H113.342C113.073 21.8452 112.241 23.4028 110.844 24.5415C109.458 25.6694 107.686 26.2334 105.527 26.2334C102.927 26.2334 100.892 25.4331 99.4199 23.8325C97.9697 22.2212 97.2446 20.0298 97.2446 17.2583C97.2446 14.4224 98.0019 12.2148 99.5165 10.6357C101.063 9.02441 103.099 8.21875 105.623 8.21875C107.675 8.21875 109.399 8.78271 110.796 9.91064C112.192 11.0278 113.03 12.521 113.31 14.3901H109.91C109.652 13.3052 109.136 12.4834 108.363 11.9248C107.589 11.3662 106.633 11.0869 105.495 11.0869C104.055 11.0869 102.895 11.5435 102.014 12.4565C101.144 13.3696 100.709 14.5566 100.709 16.0176V18.7246C100.709 20.1533 101.144 21.292 102.014 22.1406C102.895 22.9785 104.055 23.3975 105.495 23.3975C106.698 23.3975 107.691 23.0859 108.476 22.4629C109.27 21.8398 109.77 20.9751 109.974 19.8687Z" fill="#201F24"/>
<path d="M123.092 11.3931H119.499V23.1396H123.092V25.9111H118.999C117.087 25.9111 116.131 24.9766 116.131 23.1074V11.3931H113.005V8.55713H116.131V2.91748H119.499V8.55713H123.092V11.3931Z" fill="#201F24"/>
<path d="M134.682 25.9111H131.088V1.854H135.439L147.411 21.1899H147.588L147.347 14.0034V1.854H150.908V25.9111H146.557L134.617 6.5752H134.44L134.682 13.5039V25.9111Z" fill="#201F24"/>
<path d="M153.359 20.9321C153.359 19.2349 153.912 17.9136 155.018 16.9683C156.136 16.0229 157.682 15.5503 159.659 15.5503H164.702V14.2935C164.702 12.0483 163.515 10.9258 161.141 10.9258C159.992 10.9258 159.095 11.189 158.451 11.7153C157.817 12.2417 157.473 12.9722 157.419 13.9067H154.052C154.159 12.1128 154.852 10.7163 156.13 9.71729C157.419 8.71826 159.143 8.21875 161.303 8.21875C162.388 8.21875 163.37 8.36914 164.251 8.66992C165.132 8.9707 165.814 9.36279 166.298 9.84619C167.501 10.9956 168.102 12.4995 168.102 14.3579V23.4297H170.552V25.9111H167.41C166.572 25.9111 165.965 25.75 165.589 25.4277C165.213 25.1055 164.998 24.606 164.944 23.9292L164.912 23.1074H164.67C164.294 24.0527 163.58 24.8101 162.527 25.3794C161.485 25.9487 160.277 26.2334 158.902 26.2334C157.194 26.2334 155.84 25.7554 154.841 24.7993C153.853 23.8325 153.359 22.5435 153.359 20.9321ZM156.823 20.207V21.1255C156.823 21.9097 157.086 22.5112 157.613 22.9302C158.15 23.3384 158.896 23.5425 159.852 23.5425C161.346 23.5425 162.527 23.1074 163.397 22.2373C164.267 21.3564 164.702 20.1855 164.702 18.7246V17.8867H160.094C159.063 17.8867 158.257 18.0962 157.677 18.5151C157.108 18.9233 156.823 19.4873 156.823 20.207Z" fill="#201F24"/>
<path d="M183.235 5.94678V1.88623H186.586V5.94678H183.235ZM176 8.55713H186.586V25.9111H183.235V11.3931H176V23.1396H179.464V25.9111H175.645C174.56 25.9111 173.787 25.6587 173.325 25.1538C172.863 24.6489 172.621 23.9023 172.6 22.9141V11.3931H169.474V8.55713H172.6V2.91748H176V8.55713Z" fill="#201F24"/>
<path d="M193.436 25.9111L187.233 8.55713H190.987L193.759 17.2583L195.386 22.6079H195.579L197.159 17.2905L199.93 8.55713H203.668L197.561 25.9111H193.436Z" fill="#201F24"/>
<path d="M202.881 17.1938C202.881 14.3901 203.617 12.1934 205.088 10.6035C206.56 9.01367 208.563 8.21875 211.098 8.21875C213.494 8.21875 215.395 8.92236 216.803 10.3296C218.231 11.7583 218.946 13.6865 218.946 16.1143C218.946 16.6836 218.903 17.3066 218.817 17.9834H206.377V18.9502C206.377 20.3252 206.818 21.437 207.699 22.2856C208.579 23.1235 209.734 23.5425 211.163 23.5425C212.291 23.5425 213.252 23.2793 214.047 22.7529C214.853 22.2266 215.39 21.5176 215.658 20.626H219.01C218.666 22.3232 217.775 23.6821 216.335 24.7026C214.907 25.7231 213.172 26.2334 211.131 26.2334C208.574 26.2334 206.56 25.4224 205.088 23.8003C203.617 22.1782 202.881 19.9761 202.881 17.1938ZM206.377 15.1475V15.5503H215.513V14.9863C215.513 13.7725 215.105 12.7949 214.289 12.0537C213.472 11.3018 212.398 10.9258 211.066 10.9258C209.68 10.9258 208.553 11.3179 207.682 12.1021C206.812 12.8755 206.377 13.8906 206.377 15.1475Z" fill="#201F24"/>
<path d="M243.297 25.9111H227.071V1.854H243.297V5.06055H230.664V11.9893H241.718V15.0186H230.664V22.7046H243.297V25.9111Z" fill="#201F24"/>
<path d="M248.777 25.9111H245.377V8.55713H248.342L248.809 11.7798H249.035C249.572 10.6626 250.351 9.79248 251.371 9.16943C252.392 8.53564 253.552 8.21875 254.852 8.21875C256.753 8.21875 258.225 8.85254 259.267 10.1201C260.32 11.3877 260.846 13.1226 260.846 15.3247V25.9111H257.414V15.647C257.414 12.6821 256.13 11.1997 253.563 11.1997C252.123 11.1997 250.963 11.7153 250.082 12.7466C249.212 13.7778 248.777 15.1313 248.777 16.8071V25.9111Z" fill="#201F24"/>
<path d="M271.45 11.3931H267.857V23.1396H271.45V25.9111H267.358C265.446 25.9111 264.489 24.9766 264.489 23.1074V11.3931H261.363V8.55713H264.489V2.91748H267.857V8.55713H271.45V11.3931Z" fill="#201F24"/>
<path d="M271.904 17.1938C271.904 14.3901 272.639 12.1934 274.111 10.6035C275.583 9.01367 277.586 8.21875 280.121 8.21875C282.517 8.21875 284.418 8.92236 285.825 10.3296C287.254 11.7583 287.968 13.6865 287.968 16.1143C287.968 16.6836 287.925 17.3066 287.84 17.9834H275.4V18.9502C275.4 20.3252 275.841 21.437 276.721 22.2856C277.602 23.1235 278.757 23.5425 280.186 23.5425C281.314 23.5425 282.275 23.2793 283.07 22.7529C283.876 22.2266 284.413 21.5176 284.681 20.626H288.033C287.689 22.3232 286.798 23.6821 285.358 24.7026C283.929 25.7231 282.195 26.2334 280.154 26.2334C277.597 26.2334 275.583 25.4224 274.111 23.8003C272.639 22.1782 271.904 19.9761 271.904 17.1938ZM275.4 15.1475V15.5503H284.536V14.9863C284.536 13.7725 284.128 12.7949 283.312 12.0537C282.495 11.3018 281.421 10.9258 280.089 10.9258C278.703 10.9258 277.575 11.3179 276.705 12.1021C275.835 12.8755 275.4 13.8906 275.4 15.1475Z" fill="#201F24"/>
<path d="M293.094 8.55713H299.105V11.3931H293.497V25.9111H290.097V11.522C290.097 10.5767 290.318 9.84619 290.758 9.33057C291.209 8.81494 291.988 8.55713 293.094 8.55713Z" fill="#201F24"/>
<path d="M303.57 31.4219H300.17V8.55713H303.167L303.57 11.6187H303.796C304.343 10.5444 305.149 9.71191 306.213 9.12109C307.287 8.51953 308.517 8.21875 309.902 8.21875C312.158 8.21875 313.915 9.00293 315.172 10.5713C316.428 12.1289 317.057 14.3149 317.057 17.1294C317.057 19.9546 316.428 22.146 315.172 23.7036C313.915 25.2612 312.158 26.04 309.902 26.04C306.959 26.04 304.923 24.9067 303.796 22.6401H303.57V31.4219ZM308.807 23.2363C310.257 23.2363 311.406 22.8442 312.255 22.0601C313.104 21.2651 313.528 20.1748 313.528 18.7891V15.4858C313.528 14.1323 313.109 13.0581 312.271 12.2632C311.444 11.4575 310.289 11.0547 308.807 11.0547C307.228 11.0547 305.96 11.522 305.004 12.4565C304.048 13.3804 303.57 14.6104 303.57 16.1465V18.1284C303.57 19.6646 304.048 20.8999 305.004 21.8345C305.971 22.769 307.238 23.2363 308.807 23.2363Z" fill="#201F24"/>
<path d="M322.07 8.55713H328.08V11.3931H322.473V25.9111H319.073V11.522C319.073 10.5767 319.293 9.84619 319.734 9.33057C320.185 8.81494 320.964 8.55713 322.07 8.55713Z" fill="#201F24"/>
<path d="M332.513 5.72119H329.146V1.62842H332.513V5.72119ZM332.513 25.9111H329.146V8.55713H332.513V25.9111Z" fill="#201F24"/>
<path d="M334.449 20.5938H337.849C337.849 21.5391 338.192 22.291 338.88 22.8496C339.578 23.3975 340.518 23.6714 341.7 23.6714C342.817 23.6714 343.692 23.4404 344.326 22.9785C344.96 22.5059 345.277 21.8667 345.277 21.061C345.277 19.8687 344.536 19.1436 343.053 18.8857L339.525 18.2251C336.356 17.6665 334.771 16.1035 334.771 13.5361C334.771 11.8818 335.378 10.582 336.592 9.63672C337.806 8.69141 339.444 8.21875 341.506 8.21875C343.58 8.21875 345.223 8.70752 346.437 9.68506C347.662 10.6519 348.285 11.9463 348.306 13.5684H344.939C344.874 11.7207 343.73 10.7969 341.506 10.7969C340.464 10.7969 339.653 11.0117 339.073 11.4414C338.493 11.8711 338.203 12.4619 338.203 13.2139C338.203 14.4492 339.084 15.1958 340.846 15.4536L344.149 16.0498C347.254 16.6084 348.806 18.2036 348.806 20.8354C348.806 22.5005 348.161 23.8164 346.872 24.7832C345.594 25.75 343.87 26.2334 341.7 26.2334C339.465 26.2334 337.698 25.7231 336.399 24.7026C335.099 23.6714 334.449 22.3018 334.449 20.5938Z" fill="#201F24"/>
<path d="M349.646 17.1938C349.646 14.3901 350.381 12.1934 351.853 10.6035C353.325 9.01367 355.328 8.21875 357.863 8.21875C360.259 8.21875 362.16 8.92236 363.567 10.3296C364.996 11.7583 365.711 13.6865 365.711 16.1143C365.711 16.6836 365.668 17.3066 365.582 17.9834H353.142V18.9502C353.142 20.3252 353.583 21.437 354.463 22.2856C355.344 23.1235 356.499 23.5425 357.928 23.5425C359.056 23.5425 360.017 23.2793 360.812 22.7529C361.618 22.2266 362.155 21.5176 362.423 20.626H365.775C365.431 22.3232 364.54 23.6821 363.1 24.7026C361.671 25.7231 359.937 26.2334 357.896 26.2334C355.339 26.2334 353.325 25.4224 351.853 23.8003C350.381 22.1782 349.646 19.9761 349.646 17.1938ZM353.142 15.1475V15.5503H362.278V14.9863C362.278 13.7725 361.87 12.7949 361.054 12.0537C360.237 11.3018 359.163 10.9258 357.831 10.9258C356.445 10.9258 355.317 11.3179 354.447 12.1021C353.577 12.8755 353.142 13.8906 353.142 15.1475Z" fill="#201F24"/>
<path d="M377.429 25.9111H373.835V1.854H389.868V5.06055H377.429V13.6006H388.547V16.6782H377.429V25.9111Z" fill="#201F24"/>
<path d="M394.624 8.55713H400.634V11.3931H395.026V25.9111H391.626V11.522C391.626 10.5767 391.847 9.84619 392.287 9.33057C392.738 8.81494 393.517 8.55713 394.624 8.55713Z" fill="#201F24"/>
<path d="M399.508 20.9321C399.508 19.2349 400.061 17.9136 401.167 16.9683C402.285 16.0229 403.832 15.5503 405.808 15.5503H410.852V14.2935C410.852 12.0483 409.665 10.9258 407.291 10.9258C406.141 10.9258 405.244 11.189 404.6 11.7153C403.966 12.2417 403.622 12.9722 403.568 13.9067H400.201C400.308 12.1128 401.001 10.7163 402.279 9.71729C403.568 8.71826 405.292 8.21875 407.452 8.21875C408.537 8.21875 409.52 8.36914 410.4 8.66992C411.281 8.9707 411.963 9.36279 412.447 9.84619C413.65 10.9956 414.251 12.4995 414.251 14.3579V23.4297H416.701V25.9111H413.559C412.721 25.9111 412.114 25.75 411.738 25.4277C411.362 25.1055 411.147 24.606 411.093 23.9292L411.061 23.1074H410.819C410.443 24.0527 409.729 24.8101 408.676 25.3794C407.634 25.9487 406.426 26.2334 405.051 26.2334C403.343 26.2334 401.989 25.7554 400.99 24.7993C400.002 23.8325 399.508 22.5435 399.508 20.9321ZM402.972 20.207V21.1255C402.972 21.9097 403.235 22.5112 403.762 22.9302C404.299 23.3384 405.045 23.5425 406.001 23.5425C407.495 23.5425 408.676 23.1074 409.546 22.2373C410.417 21.3564 410.852 20.1855 410.852 18.7246V17.8867H406.243C405.212 17.8867 404.406 18.0962 403.826 18.5151C403.257 18.9233 402.972 19.4873 402.972 20.207Z" fill="#201F24"/>
<path d="M421.52 25.9111H418.121V8.55713H421.053L421.52 11.7798H421.778C422.767 9.40576 424.518 8.21875 427.031 8.21875C428.277 8.21875 429.341 8.55713 430.222 9.23389C431.103 9.8999 431.72 10.8076 432.075 11.957H432.349C433.412 9.46484 435.292 8.21875 437.988 8.21875C439.814 8.21875 441.227 8.83105 442.226 10.0557C443.225 11.2695 443.725 12.9775 443.725 15.1797V25.9111H440.325V15.5825C440.325 12.5854 439.148 11.0869 436.796 11.0869C435.485 11.0869 434.465 11.5811 433.734 12.5693C433.004 13.5469 432.639 14.8789 432.639 16.5654V25.9111H429.207V15.647C429.207 12.6069 428.052 11.0869 425.742 11.0869C424.464 11.0869 423.438 11.5811 422.665 12.5693C421.902 13.5576 421.52 14.8789 421.52 16.5332V25.9111Z" fill="#201F24"/>
<path d="M445.531 17.1938C445.531 14.3901 446.267 12.1934 447.739 10.6035C449.21 9.01367 451.214 8.21875 453.749 8.21875C456.145 8.21875 458.046 8.92236 459.453 10.3296C460.882 11.7583 461.596 13.6865 461.596 16.1143C461.596 16.6836 461.553 17.3066 461.467 17.9834H449.028V18.9502C449.028 20.3252 449.468 21.437 450.349 22.2856C451.23 23.1235 452.385 23.5425 453.813 23.5425C454.941 23.5425 455.903 23.2793 456.698 22.7529C457.503 22.2266 458.04 21.5176 458.309 20.626H461.661C461.317 22.3232 460.425 23.6821 458.986 24.7026C457.557 25.7231 455.822 26.2334 453.781 26.2334C451.225 26.2334 449.21 25.4224 447.739 23.8003C446.267 22.1782 445.531 19.9761 445.531 17.1938ZM449.028 15.1475V15.5503H458.164V14.9863C458.164 13.7725 457.756 12.7949 456.939 12.0537C456.123 11.3018 455.049 10.9258 453.717 10.9258C452.331 10.9258 451.203 11.3179 450.333 12.1021C449.463 12.8755 449.028 13.8906 449.028 15.1475Z" fill="#201F24"/>
<path d="M479.709 17.3389L481.885 8.55713H485.414L480.692 25.9111H476.31L474.295 17.4033L473.264 12.811H473.071L472.12 17.4033L470.17 25.9111H465.804L460.986 8.55713H464.595L466.77 17.2583L467.882 22.5112H468.156L471.25 8.55713H475.246L478.42 22.479H478.646L479.709 17.3389Z" fill="#201F24"/>
<path d="M487.22 23.8325C485.727 22.2104 484.98 20.0083 484.98 17.2261C484.98 14.4438 485.738 12.2471 487.252 10.6357C488.767 9.02441 490.813 8.21875 493.392 8.21875C495.894 8.21875 497.919 9.02441 499.466 10.6357C501.024 12.2256 501.803 14.4224 501.803 17.2261C501.803 19.9868 501.056 22.1782 499.563 23.8003C498.07 25.4224 496.013 26.2334 493.392 26.2334C490.781 26.2334 488.724 25.4331 487.22 23.8325ZM488.445 15.9531V18.644C488.445 20.1265 488.901 21.292 489.814 22.1406C490.727 22.9785 491.92 23.3975 493.392 23.3975C494.852 23.3975 496.034 22.9731 496.936 22.1245C497.85 21.2759 498.306 20.1157 498.306 18.644V15.9531C498.306 14.5029 497.85 13.332 496.936 12.4404C496.023 11.5381 494.842 11.0869 493.392 11.0869C491.92 11.0869 490.727 11.5327 489.814 12.4243C488.901 13.3159 488.445 14.4922 488.445 15.9531Z" fill="#201F24"/>
<path d="M506.816 8.55713H512.826V11.3931H507.219V25.9111H503.819V11.522C503.819 10.5767 504.039 9.84619 504.479 9.33057C504.931 8.81494 505.709 8.55713 506.816 8.55713Z" fill="#201F24"/>
<path d="M529.473 25.9111H525.541L520.127 17.7256L517.324 20.5938V25.9111H513.891V1.62842H517.324V16.3076L524.816 8.55713H529.135L522.464 15.3569L529.473 25.9111Z" fill="#201F24"/>
</svg>
